{"title":"X-MenDays OF Future Past (2014) 720p Blu-Ray x264 [Dual-Audio][E","uid":11156371,"size":1308088526,"categoryP":"video","categoryS":"hd___movies","magnet":"?xt=urn:btih:19cd685011904a1750a9bd962bfff1de6bd3b0f1&amp;dn=X-MenDays+OF+Future+Past+%282014%29+720p+Blu-Ray+x264+%5BDual-Audio%5D%5BE&amp;tr=udp%3A%2F%2Ftracker.openbittorrent.com%3A80&amp;tr=udp%3A%2F%2Fopen.demonii.com%3A1337&amp;tr=udp%3A%2F%2Ftracker.coppersurfer.tk%3A6969&amp;tr=udp%3A%2F%2Fexodus.desync.com%3A6969","seeders":11,"leechers":8,"uploader":"inovai","files":3,"time":1412434653,"description":"X-Men:Days OF Future Past (2014) 720p Blu-Ray x264 [Dual-Audio][English BD 5.1 + Hindi BD 5.1] - Mafiaking - TeamTNT\n\nCover:\n &lt;a href=&quot;\nhttp://forum.primetimeshow.in/viewtopic.php?f=7&amp;t=643&quot; rel=&quot;nofollow&quot; target=&quot;_NEW&quot;&gt;\nhttp://forum.primetimeshow.in/viewtopic.php?f=7&amp;t=643&lt;/a&gt;\n\nRatings: 8.3/10\n\nGENRE: Action | Adventure | Sci-Fi\n\nScreenshots:\n &lt;a href=&quot;\nhttp://m.primetimeshow.in/share-AEBB_542FEE66.html&quot; rel=&quot;nofollow&quot; target=&quot;_NEW&quot;&gt;\nhttp://m.primetimeshow.in/share-AEBB_542FEE66.html&lt;/a&gt;\n &lt;a href=&quot;\nhttp://m.primetimeshow.in/share-56A3_542FEE66.html&quot; rel=&quot;nofollow&quot; target=&quot;_NEW&quot;&gt;\nhttp://m.primetimeshow.in/share-56A3_542FEE66.html&lt;/a&gt;\n &lt;a href=&quot;\nhttp://m.primetimeshow.in/share-0952_542FEE66.html&quot; rel=&quot;nofollow&quot; target=&quot;_NEW&quot;&gt;\nhttp://m.primetimeshow.in/share-0952_542FEE66.html&lt;/a&gt;\n &lt;a href=&quot;\nhttp://m.primetimeshow.in/share-D94E_542FEE66.html&quot; rel=&quot;nofollow&quot; target=&quot;_NEW&quot;&gt;\nhttp://m.primetimeshow.in/share-D94E_542FEE66.html&lt;/a&gt;\n &lt;a href=&quot;\nhttp://m.primetimeshow.in/share-0C1E_542FEE66.html&quot; rel=&quot;nofollow&quot; target=&quot;_NEW&quot;&gt;\nhttp://m.primetimeshow.in/share-0C1E_542FEE66.html&lt;/a&gt;\n\nGeneral\nUnique ID : 219954469517024088032724125811229249246 (0xA579B09EE3C43D08956394730A82CEDE)\nComplete name : X-MenDays OF Future Past (2014) 720p Blu-Ray x264 [Dual-Audio][English BD 5.1 + Hindi BD 5.1] - Mafiaking - TeamTNT.mkv\nFormat : Matroska\nFormat version : Version 4 / Version 2\nFile size : 1.21 GiB\nDuration : 2h 11mn\nOverall bit rate : 1 318 Kbps\nMovie name : X-Men:Days OF Future Past (2014) 720p Blu-Ray x264 [Dual-Audio][English BD 5.1 + Hindi BD 5.1] - Mafiaking - TeamTNT\nEncoded date : UTC 2014-10-03 13:59:57\nWriting application : mkvmerge v7.0.0 ('Where We Going') 64bit built on Jun 9 2014 15:16:27\nWriting library : libebml v1.3.0 + libmatroska v1.4.1\n\nVideo\nID : 1\nFormat : AVC\nFormat/Info : Advanced Video Codec\nFormat profile : &lt;a class=&quot;__cf_email__&quot; href=&quot;/cdn-cgi/l/email-protection&quot; data-cfemail=&quot;6129080609212d554f50&quot;&gt;[email&amp;#160;protected]&lt;/a&gt;&lt;script cf-hash='f9e31' type=&quot;text/javascript&quot;&gt;\n/* &lt;![CDATA[ */!function(){try{var t=&quot;currentScript&quot;in document?document.currentScript:function(){for(var t=document.getElementsByTagName(&quot;script&quot;),e=t.length;e--;)if(t[e].getAttribute(&quot;cf-hash&quot;))return t[e]}();if(t&amp;&amp;t.previousSibling){var e,r,n,i,c=t.previousSibling,a=c.getAttribute(&quot;data-cfemail&quot;);if(a){for(e=&quot;&quot;,r=parseInt(a.substr(0,2),16),n=2;a.length-n;n+=2)i=parseInt(a.substr(n,2),16)^r,e+=String.fromCharCode(i);e=document.createTextNode(e),c.parentNode.replaceChild(e,c)}}}catch(u){}}();/* ]]&gt; */&lt;/script&gt;\nFormat settings, CABAC : Yes\nFormat settings, ReFrames : 4 frames\nCodec ID : V_MPEG4/ISO/AVC\nDuration : 2h 11mn\nBit rate : 900 Kbps\nWidth : 1 280 pixels\nHeight : 536 pixels\nDisplay aspect ratio : 2.40:1\nFrame rate mode : Constant\nFrame rate : 23.976 fps\nColor space : YUV\nChroma subsampling : 4:2:0\nBit depth : 8 bits\nScan type : Progressive\nBits/(Pixel*Frame) : 0.055\nStream size : 824 MiB (66%)\nTitle : Mafiaking\nLanguage : English\nDefault : Yes\nForced : No\n\nAudio #1\nID : 2\nFormat : AC-3\nFormat/Info : Audio Coding 3\nMode extension : CM (complete main)\nFormat settings, Endianness : Big\nCodec ID : A_AC3\nDuration : 2h 11mn\nBit rate mode : Constant\nBit rate : 224 Kbps\nChannel(s) : 6 channels\nChannel positions : Front: L C R, Side: L R, LFE\nSampling rate : 48.0 KHz\nBit depth : 16 bits\nCompression mode : Lossy\nStream size : 211 MiB (17%)\nTitle : Mafiaking\nLanguage : Hindi\nDefault : Yes\nForced : No\n\nAudio #2\nID : 3\nFormat : AC-3\nFormat/Info : Audio Coding 3\nMode extension : CM (complete main)\nFormat settings, Endianness : Big\nCodec ID : A_AC3\nDuration : 2h 11mn\nBit rate mode : Constant\nBit rate : 192 Kbps\nChannel(s) : 6 channels\nChannel positions : Front: L C R, Side: L R, LFE\nSampling rate : 48.0 KHz\nBit depth : 16 bits\nCompression mode : Lossy\nStream size : 181 MiB (15%)\nTitle : Mafiaking\nLanguage : English\nDefault : No\nForced : No\n\nText\nID : 4\nFormat : UTF-8\nCodec ID : S_TEXT/UTF8\nCodec ID/Info : UTF-8 Plain Text\nTitle : Mafiaking\nLanguage : English\nDefault : No\nForced : No\n\nThanks to Mafiaking - TeamTNT!!\n\n\nSeed n Enjoy!!","torrent":{"xt":"urn:btih:19cd685011904a1750a9bd962bfff1de6bd3b0f1","amp;dn":"X-MenDays+OF+Future+Past+%282014%29+720p+Blu-Ray+x264+%5BDual-Audio%5D%5BE","amp;tr":["udp%3A%2F%2Ftracker.openbittorrent.com%3A80","udp%3A%2F%2Fopen.demonii.com%3A1337","udp%3A%2F%2Ftracker.coppersurfer.tk%3A6969","udp%3A%2F%2Fexodus.desync.com%3A6969"],"infoHash":"19cd685011904a1750a9bd962bfff1de6bd3b0f1","infoHashBuffer":{"type":"Buffer","data":[25,205,104,80,17,144,74,23,80,169,189,150,43,255,241,222,107,211,176,241]},"announce":[],"urlList":[]}}